<?xml version="1.0" standalone="no"?>
<!DOCTYPE svg PUBLIC "-//W3C//DTD SVG 20010904//EN"
        "http://www.w3.org/TR/2001/REC-SVG-20010904/DTD/svg10.dtd">
<svg version="1.0" xmlns="http://www.w3.org/2000/svg"
     width="2367.000000pt" height="2367.000000pt" viewBox="0 0 2367.000000 2367.000000"
     preserveAspectRatio="xMidYMid meet">
    <metadata>
        Created by potrace 1.14, written by Peter Selinger 2001-2017
    </metadata>
    <g transform="translate(0.000000,2367.000000) scale(0.100000,-0.100000)"
       fill="#000000" stroke="none">
        <path d="M11337 22403 c-1 -1 -56 -4 -122 -7 -66 -3 -145 -8 -176 -10 -144
-11 -457 -42 -509 -51 -14 -3 -47 -7 -75 -10 -27 -3 -61 -7 -75 -10 -13 -2
-42 -7 -65 -10 -98 -14 -282 -47 -420 -76 -82 -17 -159 -32 -170 -35 -11 -2
-74 -18 -140 -35 -66 -17 -129 -32 -140 -35 -75 -14 -537 -164 -630 -204 -25
-11 -45 -17 -45 -13 0 3 -6 1 -12 -4 -10 -8 -66 -30 -98 -38 -3 -1 -23 -10
-45 -19 -22 -10 -53 -24 -70 -31 -16 -7 -59 -25 -95 -40 -78 -34 -313 -147
-320 -155 -3 -3 -25 -14 -50 -25 -25 -11 -47 -23 -50 -27 -3 -4 -17 -12 -30
-18 -14 -6 -34 -16 -45 -23 -38 -24 -85 -47 -91 -46 -4 0 -10 -3 -13 -8 -3 -5
-53 -38 -111 -73 -92 -57 -124 -77 -190 -120 -19 -13 -150 -102 -210 -144 -25
-17 -47 -33 -50 -36 -3 -3 -49 -38 -103 -79 -54 -41 -104 -79 -110 -85 -7 -6
-39 -33 -72 -61 -93 -78 -158 -139 -309 -291 -150 -149 -241 -247 -346 -373
-19 -23 -44 -53 -55 -65 -11 -13 -27 -32 -35 -42 -8 -11 -32 -41 -53 -66 -34
-42 -60 -77 -177 -234 -16 -23 -30 -46 -30 -52 0 -6 -4 -12 -9 -14 -8 -3 -121
-166 -121 -175 0 -2 -18 -31 -40 -64 -22 -33 -40 -62 -40 -64 0 -2 -28 -50
-62 -107 -181 -304 -349 -678 -470 -1048 l-53 -161 -50 5 c-65 6 -122 13 -162
20 -18 3 -45 8 -60 11 -79 13 -97 16 -105 21 -4 3 -16 7 -27 9 -10 2 -63 13
-117 25 -111 24 -135 28 -216 35 -31 2 -60 5 -65 6 -4 1 -10 1 -13 0 -3 -1
-61 -4 -130 -6 -69 -2 -136 -7 -150 -10 -14 -3 -45 -8 -70 -11 -56 -7 -161
-28 -220 -44 -25 -7 -46 -12 -47 -12 -10 3 -197 -69 -292 -111 -173 -76 -388
-209 -481 -295 -13 -12 -27 -22 -32 -22 -4 0 -20 -12 -36 -27 -16 -16 -54 -49
-83 -74 -146 -126 -284 -284 -385 -442 -24 -37 -44 -71 -44 -76 0 -5 -4 -11
-8 -13 -11 -4 -106 -201 -122 -253 -7 -22 -16 -44 -20 -50 -4 -5 -10 -19 -13
-30 -3 -11 -21 -74 -41 -140 -20 -66 -43 -149 -52 -185 -8 -36 -19 -83 -24
-105 -10 -40 -16 -72 -26 -130 -7 -38 -32 -182 -38 -215 -3 -14 -7 -47 -11
-75 -3 -27 -8 -63 -11 -80 -6 -46 -13 -104 -20 -170 -3 -33 -8 -71 -10 -85 -5
-24 -10 -85 -19 -195 -2 -27 -4 -50 -5 -50 0 0 -3 -31 -5 -70 -2 -38 -7 -99
-9 -135 -25 -302 -25 -958 0 -1210 2 -25 6 -76 9 -115 2 -38 7 -88 9 -110 3
-22 8 -62 11 -90 3 -27 10 -88 16 -135 7 -47 13 -98 14 -115 2 -16 4 -30 5
-30 3 0 9 -36 14 -85 3 -25 10 -71 16 -102 6 -31 13 -70 15 -85 3 -15 10 -50
15 -78 6 -27 13 -61 15 -75 11 -70 75 -331 134 -545 26 -95 130 -403 147 -437
8 -15 14 -30 14 -33 0 -3 7 -21 15 -41 8 -20 15 -38 15 -40 0 -2 12 -29 26
-61 70 -157 120 -263 146 -306 15 -26 28 -50 28 -53 0 -10 104 -169 149 -229
145 -190 304 -324 501 -423 126 -63 143 -70 275 -113 96 -31 353 -85 362 -75
3 3 13 1 22 -3 9 -5 43 -11 76 -15 33 -4 76 -8 95 -11 19 -2 64 -7 100 -10 36
-4 83 -8 105 -11 85 -8 553 -11 610 -4 33 5 83 11 110 14 43 6 89 13 187 30
13 2 34 7 48 10 33 8 77 16 120 23 19 3 43 9 52 14 43 23 62 11 86 -54 48
-128 126 -323 141 -352 8 -16 16 -34 17 -40 1 -5 16 -40 33 -78 17 -37 31 -69
30 -72 0 -3 9 -22 20 -43 21 -40 37 -77 112 -249 27 -61 49 -117 49 -122 0 -6
5 -11 10 -11 6 0 10 -5 10 -11 0 -27 218 -461 240 -479 4 -3 9 -13 13 -22 3
-9 48 -79 99 -154 51 -75 98 -144 103 -153 6 -9 12 -18 15 -21 3 -3 24 -27 45
-55 22 -27 42 -52 45 -55 3 -3 25 -30 50 -60 25 -30 51 -62 60 -70 8 -8 24
-33 35 -54 11 -22 25 -44 30 -50 6 -6 23 -29 39 -51 17 -22 32 -42 35 -45 4
-3 26 -32 51 -65 25 -33 65 -78 90 -100 98 -87 214 -203 261 -260 27 -33 58
-69 67 -80 10 -11 44 -51 77 -90 33 -38 69 -79 80 -91 11 -12 30 -35 42 -50
12 -16 30 -39 41 -52 11 -13 35 -41 54 -64 18 -23 38 -46 43 -52 6 -6 26 -31
45 -56 39 -50 60 -76 105 -129 17 -20 44 -54 60 -76 31 -41 61 -78 83 -101 6
-7 12 -15 12 -18 0 -3 11 -18 25 -33 13 -16 47 -57 74 -93 28 -36 54 -69 59
-75 4 -5 36 -46 70 -90 91 -116 105 -134 124 -157 10 -12 18 -24 18 -27 0 -3
10 -17 23 -31 31 -35 187 -246 187 -253 0 -7 23 -36 48 -62 6 -8 12 -17 12
-21 0 -4 8 -17 19 -28 51 -57 232 -342 398 -626 62 -107 118 -202 123 -210 6
-8 18 -31 27 -50 10 -19 25 -46 34 -60 9 -14 33 -56 53 -93 20 -37 46 -84 58
-105 28 -49 87 -160 106 -197 9 -16 20 -33 25 -36 5 -3 9 -10 9 -15 0 -5 10
-27 21 -49 12 -22 21 -43 22 -47 0 -3 3 -10 7 -14 7 -6 110 -212 114 -224 0
-3 18 -41 38 -85 71 -151 148 -330 161 -375 4 -14 11 -29 15 -35 4 -5 13 -28
20 -50 7 -22 20 -58 30 -80 30 -69 80 -211 80 -227 0 -7 4 -18 9 -23 10 -12
56 -147 53 -157 -1 -5 3 -8 8 -8 6 0 10 -8 10 -19 0 -10 9 -40 19 -67 10 -27
33 -89 51 -139 17 -49 34 -97 37 -105 3 -8 7 -19 9 -25 3 -11 113 -329 115
-332 1 -2 2 -6 3 -10 1 -5 15 -48 31 -98 16 -49 29 -94 31 -100 1 -5 12 -40
24 -78 12 -37 23 -73 24 -80 1 -6 4 -16 7 -22 3 -5 12 -32 18 -60 7 -27 17
-59 21 -70 5 -11 11 -31 14 -45 2 -14 9 -41 15 -60 9 -32 25 -90 36 -130 2 -8
10 -42 18 -75 9 -33 19 -73 23 -90 4 -16 8 -32 8 -35 1 -3 5 -11 9 -17 5 -7 6
-13 3 -13 -2 0 0 -15 5 -32 5 -18 14 -51 19 -73 5 -22 16 -69 25 -105 9 -36
18 -74 21 -85 2 -11 6 -31 9 -45 3 -14 12 -56 20 -95 8 -38 17 -80 20 -93 3
-12 7 -32 10 -45 2 -12 8 -35 11 -52 4 -16 8 -37 9 -45 1 -8 5 -22 8 -30 3 -8
11 -42 18 -75 22 -113 88 -208 167 -237 17 -7 32 -15 32 -18 0 -10 143 -4 170
7 14 5 30 12 35 14 30 12 83 56 102 85 12 18 33 66 47 106 25 68 29 84 42 147
3 13 9 31 13 40 5 9 9 18 9 21 0 3 3 17 7 31 3 14 8 34 10 45 2 10 4 20 5 22
2 1 3 5 4 10 8 30 38 130 43 142 4 8 7 17 7 20 1 3 5 11 9 18 5 6 6 12 4 12
-3 0 2 21 10 48 51 168 70 243 114 457 55 261 57 270 59 270 1 0 3 9 5 20 2
11 6 31 9 45 3 14 9 39 13 55 3 17 7 37 8 45 1 8 14 67 29 130 35 151 35 150
42 184 2 16 7 32 9 36 2 4 7 22 10 41 3 19 15 70 26 114 12 44 36 141 55 215
42 167 38 151 64 240 26 93 25 89 34 125 4 17 12 41 17 55 5 14 11 34 13 45 2
11 10 40 17 65 7 25 13 47 14 50 0 3 8 30 18 60 9 30 16 58 17 62 0 5 6 25 14
45 8 21 31 94 51 163 21 69 40 130 43 135 4 6 8 17 9 26 3 20 140 436 153 464
5 11 22 58 39 105 36 104 108 298 120 325 5 11 21 52 36 90 15 39 32 84 39
100 7 17 22 53 34 80 12 28 35 81 51 118 17 38 31 70 31 73 0 10 45 100 53
105 5 3 8 8 7 10 -3 7 13 44 72 169 33 69 72 150 86 180 14 30 32 62 39 72 8
9 16 22 17 30 1 7 13 33 26 58 12 25 22 47 21 49 -2 2 1 7 6 10 6 3 24 35 42
71 60 117 308 567 381 690 5 8 57 96 115 195 59 99 117 196 129 215 13 19 37
58 55 85 44 70 45 71 99 155 210 323 380 574 393 578 5 2 9 8 9 14 0 5 26 47
59 91 32 45 75 109 97 142 21 33 47 70 58 83 11 12 16 22 12 22 -4 0 2 10 14
22 11 12 20 27 20 34 0 7 4 14 8 16 8 3 26 36 117 218 18 36 54 112 79 170 26
58 79 169 117 247 38 79 69 147 69 152 0 5 3 11 8 13 9 4 102 190 101 202 0 5
3 12 8 15 15 11 97 201 108 251 2 8 12 39 24 68 11 28 18 52 15 52 -4 0 -2 6
3 13 6 6 16 30 23 52 7 22 15 45 19 50 3 6 6 15 7 20 1 6 10 28 19 50 21 47
25 62 27 93 0 12 4 22 9 22 5 0 9 8 9 18 0 9 12 62 26 117 26 100 42 167 48
195 2 8 8 27 14 41 6 14 13 41 17 60 7 39 13 64 15 64 2 0 11 35 14 55 1 9 5
21 10 28 4 6 5 12 2 12 -3 0 1 18 9 40 8 22 12 40 10 40 -3 0 0 11 5 25 5 14
12 36 14 48 3 12 8 36 12 52 4 17 7 38 8 48 0 9 5 17 10 17 5 0 7 2 4 6 -3 3
2 35 11 72 9 37 16 74 16 82 0 8 2 17 6 20 4 3 9 23 12 45 7 50 11 67 18 80 3
6 4 20 3 33 0 12 2 22 7 22 4 0 8 8 8 18 -1 16 5 50 16 102 20 100 27 132 29
152 2 13 6 30 9 38 3 8 8 31 11 50 3 19 9 49 12 65 4 17 7 39 8 50 0 11 4 22
8 25 4 3 9 23 12 45 2 22 5 41 7 43 1 1 3 7 4 12 1 6 4 12 5 15 1 3 3 13 4 23
1 9 5 26 9 37 3 11 8 31 11 45 3 14 7 34 9 45 3 11 7 41 11 66 9 62 14 92 31
174 7 39 16 95 20 125 3 30 13 83 21 118 18 79 27 131 38 222 3 25 8 56 11 70
3 14 8 43 11 65 4 22 10 50 15 63 6 17 6 21 -3 16 -7 -4 -8 -3 -4 4 7 11 9 21
21 82 7 38 14 72 20 100 3 14 8 43 10 65 8 59 10 69 16 80 5 9 11 52 13 103 1
12 5 22 10 22 5 0 7 3 4 6 -3 3 1 33 9 67 8 34 16 69 18 77 2 8 10 34 19 58 8
23 15 44 16 47 0 3 1 7 1 10 1 3 3 19 4 35 1 17 4 31 5 33 2 1 4 18 5 37 2 19
4 35 5 35 1 0 3 11 5 25 2 14 6 39 9 55 4 17 9 46 12 65 3 19 10 43 15 52 5 9
9 21 8 25 -1 4 0 11 1 16 1 4 4 12 5 17 1 6 3 13 5 18 1 4 1 25 0 47 -1 31 4
45 22 60 20 18 302 119 361 131 49 9 107 29 107 37 0 4 4 6 9 3 5 -3 37 9 72
27 35 18 119 57 187 87 67 29 122 57 122 62 0 5 4 7 8 4 5 -3 67 27 138 65 71
39 158 84 194 100 36 16 72 34 80 39 22 14 80 40 128 56 45 16 222 139 307
214 161 143 341 343 439 490 53 79 126 198 126 206 0 3 8 18 18 32 18 27 68
140 97 222 9 25 21 54 25 65 9 20 22 62 26 80 1 6 9 37 17 69 9 33 14 63 11
68 -3 4 -1 8 5 8 5 0 8 8 6 18 -1 9 1 27 6 39 19 52 34 483 16 483 -4 0 -7 12
-6 28 0 15 -2 41 -5 57 -5 27 -10 51 -23 120 -5 30 -10 48 -15 65 -3 8 -20 60
-38 115 -37 114 -55 158 -112 270 -38 75 -107 194 -118 205 -3 3 -34 45 -69
94 -36 49 -83 110 -105 135 -54 61 -264 268 -311 306 -20 17 -42 35 -49 41
-23 21 -203 151 -271 195 -148 97 -462 263 -555 294 -3 1 -16 6 -30 12 -40 18
-74 31 -83 32 -4 0 -20 7 -35 15 -24 12 -275 100 -320 112 -60 16 -381 96
-399 100 -14 2 -23 12 -23 22 0 10 -4 22 -8 28 -4 5 -16 34 -26 64 -19 59 -63
183 -77 215 -4 11 -22 61 -39 110 -17 50 -38 104 -46 122 -8 17 -14 34 -14 38
0 17 -87 196 -123 252 -15 24 -27 47 -27 53 0 5 -4 10 -10 10 -5 0 -10 6 -10
14 0 8 -3 16 -7 18 -8 3 -36 50 -62 106 -8 17 -19 32 -23 32 -4 0 -8 6 -8 14
0 8 -15 29 -33 48 -18 18 -59 67 -92 108 -68 86 -122 140 -130 132 -3 -3 -5 2
-5 11 0 10 -4 17 -10 17 -5 0 -10 6 -10 14 0 8 -8 17 -18 20 -11 4 -25 19 -33
34 -8 15 -19 32 -25 37 -6 6 -35 42 -65 80 -29 39 -59 76 -66 83 -7 7 -29 34
-50 60 -70 86 -267 277 -373 361 -58 45 -112 88 -120 94 -8 7 -31 23 -50 37
-19 13 -40 29 -46 35 -6 5 -23 19 -39 30 -15 11 -48 36 -74 56 -150 116 -305
207 -611 360 -388 193 -648 288 -1015 369 -22 5 -53 12 -70 15 -16 4 -43 9
-60 11 -16 3 -50 9 -75 14 -56 11 -101 18 -160 25 -25 3 -54 8 -66 10 -11 3
-50 7 -85 10 -35 3 -86 8 -114 11 -118 11 -630 26 -638 17z"/>
    </g>
</svg>
